<mxfile host="app.diagrams.net" agent="Mozilla/5.0 (Windows NT 10.0; Win64; x64) AppleWebKit/537.36 (KHTML, like Gecko) Chrome/141.0.0.0 Safari/537.36" version="28.2.8" pages="2">
  <diagram id="bai6_uc" name="Bai6_UseCase_ThuVien">
    <mxGraphModel dx="1281" dy="561" grid="1" gridSize="10" guides="1" tooltips="1" connect="1" arrows="1" fold="1" page="1" pageScale="1" pageWidth="1400" pageHeight="1200" math="0" shadow="0">
      <root>
        <mxCell id="0" />
        <mxCell id="1" parent="0" />
        <mxCell id="actor_user" value="Người dùng" style="shape=umlActor;verticalLabelPosition=bottom;verticalAlign=top;html=1;" parent="1" vertex="1">
          <mxGeometry x="70" y="200" width="60" height="100" as="geometry" />
        </mxCell>
        <mxCell id="actor_admin" value="Quản trị viên" style="shape=umlActor;verticalLabelPosition=bottom;verticalAlign=top;html=1;" parent="1" vertex="1">
          <mxGeometry x="70" y="390" width="60" height="100" as="geometry" />
        </mxCell>
        <mxCell id="sysBoundary" value="" style="shape=rectangle;whiteSpace=wrap;html=1;strokeWidth=2;rounded=0;" parent="1" vertex="1">
          <mxGeometry x="190" y="110" width="900" height="490" as="geometry" />
        </mxCell>
        <mxCell id="sysTitle" value="Hệ thống quản lý thư viện trực tuyến" style="text;html=1;align=center;verticalAlign=middle;whiteSpace=wrap;rounded=0;" parent="sysBoundary" vertex="1">
          <mxGeometry x="280" y="16.333333333333336" width="280" height="24.5" as="geometry" />
        </mxCell>
        <mxCell id="uc_dangky" value="Đăng ký người dùng" style="ellipse;whiteSpace=wrap;html=1;aspect=fixed;" parent="sysBoundary" vertex="1">
          <mxGeometry x="140" y="52.970765765765805" width="105.94594594594595" height="46.35135135135135" as="geometry" />
        </mxCell>
        <mxCell id="uc_timkiem" value="Tìm kiếm sách" style="ellipse;whiteSpace=wrap;html=1;aspect=fixed;" parent="sysBoundary" vertex="1">
          <mxGeometry x="200" y="209.9986036036036" width="105.94594594594595" height="46.35135135135135" as="geometry" />
        </mxCell>
        <mxCell id="uc_muon" value="Mượn sách" style="ellipse;whiteSpace=wrap;html=1;aspect=fixed;" parent="sysBoundary" vertex="1">
          <mxGeometry x="220" y="299.9961711711712" width="105.94594594594595" height="46.35135135135135" as="geometry" />
        </mxCell>
        <mxCell id="uc_tra" value="Trả sách" style="ellipse;whiteSpace=wrap;html=1;aspect=fixed;" parent="sysBoundary" vertex="1">
          <mxGeometry x="190" y="130.00400900900905" width="105.94594594594595" height="46.35135135135135" as="geometry" />
        </mxCell>
        <mxCell id="uc_quanly" value="Quản lý sách" style="ellipse;whiteSpace=wrap;html=1;aspect=fixed;" parent="sysBoundary" vertex="1">
          <mxGeometry x="200" y="389.99725225225234" width="105.94594594594595" height="46.35135135135135" as="geometry" />
        </mxCell>
        <mxCell id="uc_xacthuc" value="Xác thực người dùng" style="ellipse;whiteSpace=wrap;html=1;aspect=fixed;" parent="sysBoundary" vertex="1">
          <mxGeometry x="470" y="230.00481981981986" width="105.94594594594595" height="46.35135135135135" as="geometry" />
        </mxCell>
        <mxCell id="uc_kiemtra" value="Kiểm tra tồn kho" style="ellipse;whiteSpace=wrap;html=1;aspect=fixed;" parent="sysBoundary" vertex="1">
          <mxGeometry x="454.05" y="320.0033333333334" width="105.94594594594595" height="46.35135135135135" as="geometry" />
        </mxCell>
        <mxCell id="uc_ghinhantra" value="Ghi nhận trả sách" style="ellipse;whiteSpace=wrap;html=1;aspect=fixed;" parent="sysBoundary" vertex="1">
          <mxGeometry x="440" y="110.00400900900905" width="105.94594594594595" height="46.35135135135135" as="geometry" />
        </mxCell>
        <mxCell id="include_xacthuc_muon" value="«include»" style="endArrow=open;dashed=1;html=1;fontSize=12;labelBackgroundColor=#ffffff;exitX=1;exitY=0.5;exitDx=0;exitDy=0;entryX=-0.006;entryY=0.6;entryDx=0;entryDy=0;entryPerimeter=0;" parent="sysBoundary" source="uc_muon" target="uc_xacthuc" edge="1">
          <mxGeometry width="160" relative="1" as="geometry">
            <mxPoint x="400" y="387.9166666666667" as="sourcePoint" />
            <mxPoint x="800" y="191.9166666666667" as="targetPoint" />
            <mxPoint y="-10" as="offset" />
          </mxGeometry>
        </mxCell>
        <mxCell id="include_kiemtra_muon" value="«include»" style="endArrow=open;dashed=1;html=1;fontSize=12;labelBackgroundColor=#ffffff;exitX=1;exitY=0.5;exitDx=0;exitDy=0;entryX=0;entryY=0.5;entryDx=0;entryDy=0;" parent="sysBoundary" source="uc_muon" target="uc_kiemtra" edge="1">
          <mxGeometry width="160" relative="1" as="geometry">
            <mxPoint x="400" y="387.9166666666667" as="sourcePoint" />
            <mxPoint x="800" y="289.91666666666674" as="targetPoint" />
            <mxPoint y="-10" as="offset" />
          </mxGeometry>
        </mxCell>
        <mxCell id="include_ghinhantra_tra" value="«include»" style="endArrow=open;dashed=1;html=1;fontSize=12;labelBackgroundColor=#ffffff;exitX=1;exitY=0.5;exitDx=0;exitDy=0;entryX=0;entryY=0.5;entryDx=0;entryDy=0;" parent="sysBoundary" source="uc_tra" target="uc_ghinhantra" edge="1">
          <mxGeometry width="160" relative="1" as="geometry">
            <mxPoint x="400" y="485.91666666666674" as="sourcePoint" />
            <mxPoint x="800" y="387.9166666666667" as="targetPoint" />
            <mxPoint y="-10" as="offset" />
          </mxGeometry>
        </mxCell>
        <mxCell id="extend_timkiem_muon" value="«extend»" style="endArrow=open;dashed=1;html=1;fontSize=12;labelBackgroundColor=#ffffff;exitX=0.5;exitY=1;exitDx=0;exitDy=0;entryX=0.5;entryY=0;entryDx=0;entryDy=0;" parent="sysBoundary" source="uc_timkiem" target="uc_muon" edge="1">
          <mxGeometry width="160" relative="1" as="geometry">
            <mxPoint x="380" y="289.91666666666674" as="sourcePoint" />
            <mxPoint x="380" y="387.9166666666667" as="targetPoint" />
            <mxPoint y="-10" as="offset" />
          </mxGeometry>
        </mxCell>
        <mxCell id="assoc_user_dangky" style="endArrow=none;html=1;" parent="1" source="actor_user" target="uc_dangky" edge="1">
          <mxGeometry relative="1" as="geometry" />
        </mxCell>
        <mxCell id="assoc_user_timkiem" style="endArrow=none;html=1;" parent="1" source="actor_user" target="uc_timkiem" edge="1">
          <mxGeometry relative="1" as="geometry" />
        </mxCell>
        <mxCell id="assoc_user_muon" style="endArrow=none;html=1;" parent="1" source="actor_user" target="uc_muon" edge="1">
          <mxGeometry relative="1" as="geometry" />
        </mxCell>
        <mxCell id="assoc_user_tra" style="endArrow=none;html=1;" parent="1" source="actor_user" target="uc_tra" edge="1">
          <mxGeometry relative="1" as="geometry" />
        </mxCell>
        <mxCell id="assoc_admin_quanly" style="endArrow=none;html=1;" parent="1" source="actor_admin" target="uc_quanly" edge="1">
          <mxGeometry relative="1" as="geometry" />
        </mxCell>
      </root>
    </mxGraphModel>
  </diagram>
  <diagram id="bai6_cd" name="Bai6_ClassDiagram_ThuVien">
    <mxGraphModel dx="1422" dy="794" grid="1" gridSize="10" guides="1" tooltips="1" connect="1" arrows="1" fold="1" page="1" pageScale="1" pageWidth="1400" pageHeight="1200" math="0" shadow="0">
      <root>
        <mxCell id="0" />
        <mxCell id="1" parent="0" />
        <mxCell id="class_nguoidung" value="Người dùng" style="swimlane;fontStyle=1;align=center;verticalAlign=top;childLayout=stackLayout;horizontal=1;startSize=26;horizontalStack=0;resizeParent=1;resizeParentMax=0;resizeLast=0;collapsible=1;marginBottom=0;whiteSpace=wrap;html=1;" vertex="1" parent="1">
          <mxGeometry x="100" y="100" width="200" height="234" as="geometry" />
        </mxCell>
        <mxCell id="attr_nguoidung_1" value="- maNguoiDung: String" style="text;strokeColor=none;fillColor=none;align=left;verticalAlign=top;spacingLeft=4;spacingRight=4;overflow=hidden;rotatable=0;points=[[0,0.5],[1,0.5]];portConstraint=eastwest;whiteSpace=wrap;html=1;" vertex="1" parent="class_nguoidung">
          <mxGeometry y="26" width="200" height="26" as="geometry" />
        </mxCell>
        <mxCell id="attr_nguoidung_2" value="- hoTen: String" style="text;strokeColor=none;fillColor=none;align=left;verticalAlign=top;spacingLeft=4;spacingRight=4;overflow=hidden;rotatable=0;points=[[0,0.5],[1,0.5]];portConstraint=eastwest;whiteSpace=wrap;html=1;" vertex="1" parent="class_nguoidung">
          <mxGeometry y="52" width="200" height="26" as="geometry" />
        </mxCell>
        <mxCell id="attr_nguoidung_3" value="- email: String" style="text;strokeColor=none;fillColor=none;align=left;verticalAlign=top;spacingLeft=4;spacingRight=4;overflow=hidden;rotatable=0;points=[[0,0.5],[1,0.5]];portConstraint=eastwest;whiteSpace=wrap;html=1;" vertex="1" parent="class_nguoidung">
          <mxGeometry y="78" width="200" height="26" as="geometry" />
        </mxCell>
        <mxCell id="attr_nguoidung_4" value="- soDienThoai: String" style="text;strokeColor=none;fillColor=none;align=left;verticalAlign=top;spacingLeft=4;spacingRight=4;overflow=hidden;rotatable=0;points=[[0,0.5],[1,0.5]];portConstraint=eastwest;whiteSpace=wrap;html=1;" vertex="1" parent="class_nguoidung">
          <mxGeometry y="104" width="200" height="26" as="geometry" />
        </mxCell>
        <mxCell id="line_nguoidung" value="" style="line;strokeWidth=1;fillColor=none;align=left;verticalAlign=middle;spacingTop=-1;spacingLeft=3;spacingRight=3;rotatable=0;labelPosition=right;points=[];portConstraint=eastwest;strokeColor=inherit;" vertex="1" parent="class_nguoidung">
          <mxGeometry y="130" width="200" height="8" as="geometry" />
        </mxCell>
        <mxCell id="method_nguoidung_1" value="+ timKiemSach(): void" style="text;strokeColor=none;fillColor=none;align=left;verticalAlign=top;spacingLeft=4;spacingRight=4;overflow=hidden;rotatable=0;points=[[0,0.5],[1,0.5]];portConstraint=eastwest;whiteSpace=wrap;html=1;" vertex="1" parent="class_nguoidung">
          <mxGeometry y="138" width="200" height="26" as="geometry" />
        </mxCell>
        <mxCell id="method_nguoidung_2" value="+ muonSach(): boolean" style="text;strokeColor=none;fillColor=none;align=left;verticalAlign=top;spacingLeft=4;spacingRight=4;overflow=hidden;rotatable=0;points=[[0,0.5],[1,0.5]];portConstraint=eastwest;whiteSpace=wrap;html=1;" vertex="1" parent="class_nguoidung">
          <mxGeometry y="164" width="200" height="26" as="geometry" />
        </mxCell>
        <mxCell id="method_nguoidung_3" value="+ traSach(): boolean" style="text;strokeColor=none;fillColor=none;align=left;verticalAlign=top;spacingLeft=4;spacingRight=4;overflow=hidden;rotatable=0;points=[[0,0.5],[1,0.5]];portConstraint=eastwest;whiteSpace=wrap;html=1;" vertex="1" parent="class_nguoidung">
          <mxGeometry y="190" width="200" height="26" as="geometry" />
        </mxCell>
        <mxCell id="method_nguoidung_4" value="+ xemLichSuMuon(): void" style="text;strokeColor=none;fillColor=none;align=left;verticalAlign=top;spacingLeft=4;spacingRight=4;overflow=hidden;rotatable=0;points=[[0,0.5],[1,0.5]];portConstraint=eastwest;whiteSpace=wrap;html=1;" vertex="1" parent="class_nguoidung">
          <mxGeometry y="216" width="200" height="26" as="geometry" />
        </mxCell>
        <mxCell id="class_sach" value="Sách" style="swimlane;fontStyle=1;align=center;verticalAlign=top;childLayout=stackLayout;horizontal=1;startSize=26;horizontalStack=0;resizeParent=1;resizeParentMax=0;resizeLast=0;collapsible=1;marginBottom=0;whiteSpace=wrap;html=1;" vertex="1" parent="1">
          <mxGeometry x="400" y="100" width="200" height="182" as="geometry" />
        </mxCell>
        <mxCell id="attr_sach_1" value="- maSach: String" style="text;strokeColor=none;fillColor=none;align=left;verticalAlign=top;spacingLeft=4;spacingRight=4;overflow=hidden;rotatable=0;points=[[0,0.5],[1,0.5]];portConstraint=eastwest;whiteSpace=wrap;html=1;" vertex="1" parent="class_sach">
          <mxGeometry y="26" width="200" height="26" as="geometry" />
        </mxCell>
        <mxCell id="attr_sach_2" value="- tenSach: String" style="text;strokeColor=none;fillColor=none;align=left;verticalAlign=top;spacingLeft=4;spacingRight=4;overflow=hidden;rotatable=0;points=[[0,0.5],[1,0.5]];portConstraint=eastwest;whiteSpace=wrap;html=1;" vertex="1" parent="class_sach">
          <mxGeometry y="52" width="200" height="26" as="geometry" />
        </mxCell>
        <mxCell id="attr_sach_3" value="- tacGia: String" style="text;strokeColor=none;fillColor=none;align=left;verticalAlign=top;spacingLeft=4;spacingRight=4;overflow=hidden;rotatable=0;points=[[0,0.5],[1,0.5]];portConstraint=eastwest;whiteSpace=wrap;html=1;" vertex="1" parent="class_sach">
          <mxGeometry y="78" width="200" height="26" as="geometry" />
        </mxCell>
        <mxCell id="attr_sach_4" value="- soLuongConLai: int" style="text;strokeColor=none;fillColor=none;align=left;verticalAlign=top;spacingLeft=4;spacingRight=4;overflow=hidden;rotatable=0;points=[[0,0.5],[1,0.5]];portConstraint=eastwest;whiteSpace=wrap;html=1;" vertex="1" parent="class_sach">
          <mxGeometry y="104" width="200" height="26" as="geometry" />
        </mxCell>
        <mxCell id="line_sach" value="" style="line;strokeWidth=1;fillColor=none;align=left;verticalAlign=middle;spacingTop=-1;spacingLeft=3;spacingRight=3;rotatable=0;labelPosition=right;points=[];portConstraint=eastwest;strokeColor=inherit;" vertex="1" parent="class_sach">
          <mxGeometry y="130" width="200" height="8" as="geometry" />
        </mxCell>
        <mxCell id="method_sach_1" value="+ kiemTraTonKho(): boolean" style="text;strokeColor=none;fillColor=none;align=left;verticalAlign=top;spacingLeft=4;spacingRight=4;overflow=hidden;rotatable=0;points=[[0,0.5],[1,0.5]];portConstraint=eastwest;whiteSpace=wrap;html=1;" vertex="1" parent="class_sach">
          <mxGeometry y="138" width="200" height="26" as="geometry" />
        </mxCell>
        <mxCell id="method_sach_2" value="+ capNhatSoLuong(): void" style="text;strokeColor=none;fillColor=none;align=left;verticalAlign=top;spacingLeft=4;spacingRight=4;overflow=hidden;rotatable=0;points=[[0,0.5],[1,0.5]];portConstraint=eastwest;whiteSpace=wrap;html=1;" vertex="1" parent="class_sach">
          <mxGeometry y="164" width="200" height="26" as="geometry" />
        </mxCell>
        <mxCell id="class_phieumuon" value="Phiếu mượn" style="swimlane;fontStyle=1;align=center;verticalAlign=top;childLayout=stackLayout;horizontal=1;startSize=26;horizontalStack=0;resizeParent=1;resizeParentMax=0;resizeLast=0;collapsible=1;marginBottom=0;whiteSpace=wrap;html=1;" vertex="1" parent="1">
          <mxGeometry x="100" y="400" width="200" height="182" as="geometry" />
        </mxCell>
        <mxCell id="attr_phieumuon_1" value="- maPhieuMuon: String" style="text;strokeColor=none;fillColor=none;align=left;verticalAlign=top;spacingLeft=4;spacingRight=4;overflow=hidden;rotatable=0;points=[[0,0.5],[1,0.5]];portConstraint=eastwest;whiteSpace=wrap;html=1;" vertex="1" parent="class_phieumuon">
          <mxGeometry y="26" width="200" height="26" as="geometry" />
        </mxCell>
        <mxCell id="attr_phieumuon_2" value="- ngayMuon: Date" style="text;strokeColor=none;fillColor=none;align=left;verticalAlign=top;spacingLeft=4;spacingRight=4;overflow=hidden;rotatable=0;points=[[0,0.5],[1,0.5]];portConstraint=eastwest;whiteSpace=wrap;html=1;" vertex="1" parent="class_phieumuon">
          <mxGeometry y="52" width="200" height="26" as="geometry" />
        </mxCell>
        <mxCell id="attr_phieumuon_3" value="- ngayHenTra: Date" style="text;strokeColor=none;fillColor=none;align=left;verticalAlign=top;spacingLeft=4;spacingRight=4;overflow=hidden;rotatable=0;points=[[0,0.5],[1,0.5]];portConstraint=eastwest;whiteSpace=wrap;html=1;" vertex="1" parent="class_phieumuon">
          <mxGeometry y="78" width="200" height="26" as="geometry" />
        </mxCell>
        <mxCell id="attr_phieumuon_4" value="- trangThai: String" style="text;strokeColor=none;fillColor=none;align=left;verticalAlign=top;spacingLeft=4;spacingRight=4;overflow=hidden;rotatable=0;points=[[0,0.5],[1,0.5]];portConstraint=eastwest;whiteSpace=wrap;html=1;" vertex="1" parent="class_phieumuon">
          <mxGeometry y="104" width="200" height="26" as="geometry" />
        </mxCell>
        <mxCell id="line_phieumuon" value="" style="line;strokeWidth=1;fillColor=none;align=left;verticalAlign=middle;spacingTop=-1;spacingLeft=3;spacingRight=3;rotatable=0;labelPosition=right;points=[];portConstraint=eastwest;strokeColor=inherit;" vertex="1" parent="class_phieumuon">
          <mxGeometry y="130" width="200" height="8" as="geometry" />
        </mxCell>
        <mxCell id="method_phieumuon_1" value="+ taoPhieuMuon(): boolean" style="text;strokeColor=none;fillColor=none;align=left;verticalAlign=top;spacingLeft=4;spacingRight=4;overflow=hidden;rotatable=0;points=[[0,0.5],[1,0.5]];portConstraint=eastwest;whiteSpace=wrap;html=1;" vertex="1" parent="class_phieumuon">
          <mxGeometry y="138" width="200" height="26" as="geometry" />
        </mxCell>
        <mxCell id="method_phieumuon_2" value="+ capNhatTrangThai(): void" style="text;strokeColor=none;fillColor=none;align=left;verticalAlign=top;spacingLeft=4;spacingRight=4;overflow=hidden;rotatable=0;points=[[0,0.5],[1,0.5]];portConstraint=eastwest;whiteSpace=wrap;html=1;" vertex="1" parent="class_phieumuon">
          <mxGeometry y="164" width="200" height="26" as="geometry" />
        </mxCell>
        <mxCell id="class_chitietmuon" value="Chi tiết mượn" style="swimlane;fontStyle=1;align=center;verticalAlign=top;childLayout=stackLayout;horizontal=1;startSize=26;horizontalStack=0;resizeParent=1;resizeParentMax=0;resizeLast=0;collapsible=1;marginBottom=0;whiteSpace=wrap;html=1;" vertex="1" parent="1">
          <mxGeometry x="400" y="400" width="200" height="104" as="geometry" />
        </mxCell>
        <mxCell id="attr_chitietmuon_1" value="- maChiTiet: String" style="text;strokeColor=none;fillColor=none;align=left;verticalAlign=top;spacingLeft=4;spacingRight=4;overflow=hidden;rotatable=0;points=[[0,0.5],[1,0.5]];portConstraint=eastwest;whiteSpace=wrap;html=1;" vertex="1" parent="class_chitietmuon">
          <mxGeometry y="26" width="200" height="26" as="geometry" />
        </mxCell>
        <mxCell id="attr_chitietmuon_2" value="- soLuong: int" style="text;strokeColor=none;fillColor=none;align=left;verticalAlign=top;spacingLeft=4;spacingRight=4;overflow=hidden;rotatable=0;points=[[0,0.5],[1,0.5]];portConstraint=eastwest;whiteSpace=wrap;html=1;" vertex="1" parent="class_chitietmuon">
          <mxGeometry y="52" width="200" height="26" as="geometry" />
        </mxCell>
        <mxCell id="line_chitietmuon" value="" style="line;strokeWidth=1;fillColor=none;align=left;verticalAlign=middle;spacingTop=-1;spacingLeft=3;spacingRight=3;rotatable=0;labelPosition=right;points=[];portConstraint=eastwest;strokeColor=inherit;" vertex="1" parent="class_chitietmuon">
          <mxGeometry y="78" width="200" height="8" as="geometry" />
        </mxCell>
        <mxCell id="method_chitietmuon_1" value="+ themChiTiet(): boolean" style="text;strokeColor=none;fillColor=none;align=left;verticalAlign=top;spacingLeft=4;spacingRight=4;overflow=hidden;rotatable=0;points=[[0,0.5],[1,0.5]];portConstraint=eastwest;whiteSpace=wrap;html=1;" vertex="1" parent="class_chitietmuon">
          <mxGeometry y="86" width="200" height="26" as="geometry" />
        </mxCell>
        <mxCell id="class_quantrivien" value="Quản trị viên" style="swimlane;fontStyle=1;align=center;verticalAlign=top;childLayout=stackLayout;horizontal=1;startSize=26;horizontalStack=0;resizeParent=1;resizeParentMax=0;resizeLast=0;collapsible=1;marginBottom=0;whiteSpace=wrap;html=1;" vertex="1" parent="1">
          <mxGeometry x="700" y="100" width="200" height="208" as="geometry" />
        </mxCell>
        <mxCell id="attr_quantrivien_1" value="- maAdmin: String" style="text;strokeColor=none;fillColor=none;align=left;verticalAlign=top;spacingLeft=4;spacingRight=4;overflow=hidden;rotatable=0;points=[[0,0.5],[1,0.5]];portConstraint=eastwest;whiteSpace=wrap;html=1;" vertex="1" parent="class_quantrivien">
          <mxGeometry y="26" width="200" height="26" as="geometry" />
        </mxCell>
        <mxCell id="attr_quantrivien_2" value="- tenAdmin: String" style="text;strokeColor=none;fillColor=none;align=left;verticalAlign=top;spacingLeft=4;spacingRight=4;overflow=hidden;rotatable=0;points=[[0,0.5],[1,0.5]];portConstraint=eastwest;whiteSpace=wrap;html=1;" vertex="1" parent="class_quantrivien">
          <mxGeometry y="52" width="200" height="26" as="geometry" />
        </mxCell>
        <mxCell id="attr_quantrivien_3" value="- quyenHan: String" style="text;strokeColor=none;fillColor=none;align=left;verticalAlign=top;spacingLeft=4;spacingRight=4;overflow=hidden;rotatable=0;points=[[0,0.5],[1,0.5]];portConstraint=eastwest;whiteSpace=wrap;html=1;" vertex="1" parent="class_quantrivien">
          <mxGeometry y="78" width="200" height="26" as="geometry" />
        </mxCell>
        <mxCell id="line_quantrivien" value="" style="line;strokeWidth=1;fillColor=none;align=left;verticalAlign=middle;spacingTop=-1;spacingLeft=3;spacingRight=3;rotatable=0;labelPosition=right;points=[];portConstraint=eastwest;strokeColor=inherit;" vertex="1" parent="class_quantrivien">
          <mxGeometry y="104" width="200" height="8" as="geometry" />
        </mxCell>
        <mxCell id="method_quantrivien_1" value="+ themSach(): boolean" style="text;strokeColor=none;fillColor=none;align=left;verticalAlign=top;spacingLeft=4;spacingRight=4;overflow=hidden;rotatable=0;points=[[0,0.5],[1,0.5]];portConstraint=eastwest;whiteSpace=wrap;html=1;" vertex="1" parent="class_quantrivien">
          <mxGeometry y="112" width="200" height="26" as="geometry" />
        </mxCell>
        <mxCell id="method_quantrivien_2" value="+ suaSach(): boolean" style="text;strokeColor=none;fillColor=none;align=left;verticalAlign=top;spacingLeft=4;spacingRight=4;overflow=hidden;rotatable=0;points=[[0,0.5],[1,0.5]];portConstraint=eastwest;whiteSpace=wrap;html=1;" vertex="1" parent="class_quantrivien">
          <mxGeometry y="138" width="200" height="26" as="geometry" />
        </mxCell>
        <mxCell id="method_quantrivien_3" value="+ xoaSach(): boolean" style="text;strokeColor=none;fillColor=none;align=left;verticalAlign=top;spacingLeft=4;spacingRight=4;overflow=hidden;rotatable=0;points=[[0,0.5],[1,0.5]];portConstraint=eastwest;whiteSpace=wrap;html=1;" vertex="1" parent="class_quantrivien">
          <mxGeometry y="164" width="200" height="26" as="geometry" />
        </mxCell>
        <mxCell id="method_quantrivien_4" value="+ xemDanhSachSach(): void" style="text;strokeColor=none;fillColor=none;align=left;verticalAlign=top;spacingLeft=4;spacingRight=4;overflow=hidden;rotatable=0;points=[[0,0.5],[1,0.5]];portConstraint=eastwest;whiteSpace=wrap;html=1;" vertex="1" parent="class_quantrivien">
          <mxGeometry y="190" width="200" height="26" as="geometry" />
        </mxCell>
        <mxCell id="rel_nguoidung_phieumuon" value="" style="endArrow=block;endSize=16;endFill=0;html=1;rounded=0;exitX=0.5;exitY=1;exitDx=0;exitDy=0;entryX=0.5;entryY=0;entryDx=0;entryDy=0;" parent="1" source="class_nguoidung" target="class_phieumuon" edge="1">
          <mxGeometry width="160" relative="1" as="geometry">
            <mxPoint x="220" y="360" as="sourcePoint" />
            <mxPoint x="220" y="480" as="targetPoint" />
          </mxGeometry>
        </mxCell>
        <mxCell id="label_nguoidung_phieumuon" value="1" style="edgeLabel;html=1;align=center;verticalAlign=middle;resizable=0;points=[];" parent="rel_nguoidung_phieumuon" vertex="1" connectable="0">
          <mxGeometry x="-0.2" y="1" relative="1" as="geometry">
            <mxPoint x="15" y="-5" as="offset" />
          </mxGeometry>
        </mxCell>
        <mxCell id="label_nguoidung_phieumuon_multi" value="*" style="edgeLabel;html=1;align=center;verticalAlign=middle;resizable=0;points=[];" parent="rel_nguoidung_phieumuon" vertex="1" connectable="0">
          <mxGeometry x="-0.1" y="-1" relative="1" as="geometry">
            <mxPoint x="25" y="-5" as="offset" />
          </mxGeometry>
        </mxCell>
        <mxCell id="rel_phieumuon_chitietmuon" value="" style="endArrow=diamond;endSize=16;endFill=0;html=1;rounded=0;exitX=1;exitY=0.5;exitDx=0;exitDy=0;entryX=0;entryY=0.5;entryDx=0;entryDy=0;" parent="1" source="class_phieumuon" target="class_chitietmuon" edge="1">
          <mxGeometry width="160" relative="1" as="geometry">
            <mxPoint x="340" y="600" as="sourcePoint" />
            <mxPoint x="480" y="570" as="targetPoint" />
          </mxGeometry>
        </mxCell>
        <mxCell id="label_phieumuon_chitietmuon" value="1" style="edgeLabel;html=1;align=center;verticalAlign=middle;resizable=0;points=[];" parent="rel_phieumuon_chitietmuon" vertex="1" connectable="0">
          <mxGeometry x="-0.2" y="1" relative="1" as="geometry">
            <mxPoint x="-15" y="-5" as="offset" />
          </mxGeometry>
        </mxCell>
        <mxCell id="label_phieumuon_chitietmuon_multi" value="1..*" style="edgeLabel;html=1;align=center;verticalAlign=middle;resizable=0;points=[];" parent="rel_phieumuon_chitietmuon" vertex="1" connectable="0">
          <mxGeometry x="-0.1" y="-1" relative="1" as="geometry">
            <mxPoint x="25" y="-5" as="offset" />
          </mxGeometry>
        </mxCell>
        <mxCell id="rel_chitietmuon_sach" value="" style="endArrow=block;endSize=16;endFill=0;html=1;rounded=0;exitX=0.5;exitY=0;exitDx=0;exitDy=0;entryX=0.5;entryY=1;entryDx=0;entryDy=0;" parent="1" source="class_chitietmuon" target="class_sach" edge="1">
          <mxGeometry width="160" relative="1" as="geometry">
            <mxPoint x="600" y="480" as="sourcePoint" />
            <mxPoint x="600" y="360" as="targetPoint" />
          </mxGeometry>
        </mxCell>
        <mxCell id="label_chitietmuon_sach" value="*" style="edgeLabel;html=1;align=center;verticalAlign=middle;resizable=0;points=[];" parent="rel_chitietmuon_sach" vertex="1" connectable="0">
          <mxGeometry x="-0.2" y="1" relative="1" as="geometry">
            <mxPoint x="15" y="-5" as="offset" />
          </mxGeometry>
        </mxCell>
        <mxCell id="label_chitietmuon_sach_multi" value="1" style="edgeLabel;html=1;align=center;verticalAlign=middle;resizable=0;points=[];" parent="rel_chitietmuon_sach" vertex="1" connectable="0">
          <mxGeometry x="-0.1" y="-1" relative="1" as="geometry">
            <mxPoint x="25" y="-5" as="offset" />
          </mxGeometry>
        </mxCell>
        <mxCell id="rel_quantrivien_sach" value="" style="endArrow=block;endSize=16;endFill=0;html=1;rounded=0;exitX=0;exitY=0.5;exitDx=0;exitDy=0;entryX=1;entryY=0.5;entryDx=0;entryDy=0;" parent="1" source="class_quantrivien" target="class_sach" edge="1">
          <mxGeometry width="160" relative="1" as="geometry">
            <mxPoint x="860" y="220" as="sourcePoint" />
            <mxPoint x="720" y="230" as="targetPoint" />
          </mxGeometry>
        </mxCell>
        <mxCell id="label_quantrivien_sach" value="1" style="edgeLabel;html=1;align=center;verticalAlign=middle;resizable=0;points=[];" parent="rel_quantrivien_sach" vertex="1" connectable="0">
          <mxGeometry x="-0.2" y="1" relative="1" as="geometry">
            <mxPoint x="-15" y="-5" as="offset" />
          </mxGeometry>
        </mxCell>
        <mxCell id="label_quantrivien_sach_multi" value="*" style="edgeLabel;html=1;align=center;verticalAlign=middle;resizable=0;points=[];" parent="rel_quantrivien_sach" vertex="1" connectable="0">
          <mxGeometry x="-0.1" y="-1" relative="1" as="geometry">
            <mxPoint x="25" y="-5" as="offset" />
          </mxGeometry>
        </mxCell>
      </root>
    </mxGraphModel>
  </diagram>
</mxfile>
